<svg width="24" height="24" viewBox="0 0 24 24" fill="none" xmlns="http://www.w3.org/2000/svg">
<g clip-path="url(#clip0_254_152)">
<path d="M18.375 0H5.625C2.5184 0 0 2.5184 0 5.625V18.375C0 21.4816 2.5184 24 5.625 24H18.375C21.4816 24 24 21.4816 24 18.375V5.625C24 2.5184 21.4816 0 18.375 0Z" fill="#242938"/>
<path d="M21.375 17.1504C21.1021 17.2538 20.8007 17.2536 20.5279 17.1499C20.2552 17.0461 20.0298 16.846 19.8946 16.5874C19.0449 15.3155 18.1067 14.101 17.2049 12.8604L16.8139 12.3391C15.7401 13.7778 14.6662 15.1591 13.6863 16.5927C13.5586 16.8398 13.3455 17.0321 13.0866 17.1338C12.8277 17.2355 12.5406 17.2395 12.2789 17.1452L16.3083 11.7397L12.5603 6.85532C12.8301 6.75791 13.1253 6.75658 13.3959 6.85154C13.6666 6.94651 13.8962 7.13195 14.046 7.37657C14.9165 8.64857 15.8809 9.8631 16.8399 11.1507C17.8043 9.87351 18.7582 8.65373 19.6496 7.39223C19.7779 7.14906 19.9912 6.96157 20.2488 6.86545C20.5064 6.76933 20.7903 6.7713 21.0466 6.87098L19.5922 8.79969C18.9407 9.65976 18.2995 10.5251 17.6219 11.3643C17.5673 11.4132 17.5236 11.4731 17.4937 11.54C17.4638 11.6069 17.4483 11.6794 17.4483 11.7527C17.4483 11.826 17.4638 11.8985 17.4937 11.9654C17.5236 12.0323 17.5673 12.0921 17.6219 12.141C18.8677 13.7935 20.1031 15.4511 21.375 17.1504ZM2.625 11.6719C2.7345 11.1507 2.80219 10.5824 2.95341 10.0508C3.85519 6.84501 7.53009 5.51048 10.0583 7.49657C11.5387 8.65907 11.9088 10.3063 11.8358 12.1619H3.49556C3.36 15.4772 5.75259 17.4789 8.81241 16.4572C9.30877 16.2797 9.75311 15.9813 10.1053 15.5891C10.4575 15.1968 10.7065 14.723 10.8297 14.2105C10.9913 13.6892 11.252 13.6006 11.7472 13.7518C11.6656 14.3863 11.4412 14.9942 11.0909 15.5296C10.7406 16.065 10.2735 16.514 9.72469 16.8429C8.81792 17.3388 7.77753 17.5353 6.75233 17.4043C5.72713 17.2732 4.76964 16.8213 4.01681 16.1131C3.27202 15.2757 2.82167 14.2175 2.7345 13.1002C2.7345 12.923 2.66672 12.7457 2.63025 12.5789C2.6268 12.2766 2.62505 11.9743 2.625 11.6719ZM3.50597 11.4478H11.0487C11.0017 9.04476 9.48487 7.34019 7.46241 7.32463C5.21053 7.29332 3.59981 8.96132 3.50072 11.4374L3.50597 11.4478Z" fill="white"/>
</g>
<defs>
<clipPath id="clip0_254_152">
<rect width="24" height="24" fill="white"/>
</clipPath>
</defs>
</svg>
