<svg width="24" height="24" viewBox="0 0 24 24" fill="none" xmlns="http://www.w3.org/2000/svg">
<g clip-path="url(#clip0_254_163)">
<path fill-rule="evenodd" clip-rule="evenodd" d="M16.3613 18.776C16.393 18.7151 16.4234 18.6613 16.4493 18.6056C16.4656 18.57 16.4907 18.5629 16.5261 18.5638C16.7386 18.5698 16.951 18.5764 17.1636 18.5784C17.3442 18.5803 17.5251 18.5769 17.7059 18.5749C17.9095 18.5724 18.1131 18.5617 18.3166 18.5675C18.5875 18.5754 18.8515 18.6285 19.0966 18.749C19.3893 18.8932 19.6107 19.1128 19.7616 19.4021C19.8566 19.5855 19.9158 19.7853 19.9362 19.9909C19.9685 20.2924 19.9473 20.5869 19.8516 20.8753C19.7331 21.2327 19.5081 21.5062 19.1956 21.7112C18.955 21.8689 18.6912 21.962 18.4085 22.0153C18.1092 22.0717 17.809 22.0535 17.5088 22.0545C17.1796 22.0558 16.8505 22.0487 16.5213 22.0449C16.4637 22.0444 16.4555 22.0335 16.4706 21.9785L16.4847 21.9279C16.5168 21.827 16.534 21.8225 16.6364 21.8057C16.709 21.7944 16.7784 21.768 16.8402 21.7282C16.8747 21.7054 16.889 21.6457 16.9025 21.5998C16.9141 21.5597 16.9146 21.5156 16.915 21.4732C16.9197 20.831 16.9246 20.189 16.9272 19.5472C16.9279 19.3849 16.9239 19.2226 16.915 19.0605C16.9086 18.947 16.8481 18.8694 16.7131 18.8426C16.6081 18.8218 16.5023 18.8057 16.3968 18.7871L16.3613 18.776ZM19.3756 20.331C19.3613 20.2031 19.3544 20.0741 19.3315 19.9481C19.2768 19.6457 19.1444 19.3822 18.9119 19.1758C18.536 18.8422 18.0833 18.7909 17.609 18.8306C17.501 18.8396 17.4777 18.8765 17.476 18.9875C17.4734 19.145 17.4708 19.3025 17.4706 19.46C17.4698 19.9595 17.4698 20.459 17.4706 20.9585C17.4706 21.1008 17.4725 21.2428 17.4764 21.3845C17.4809 21.5297 17.5336 21.6525 17.6757 21.7087C17.8998 21.7974 18.1355 21.8079 18.3706 21.7717C18.7461 21.7142 19.0088 21.4954 19.1851 21.1674C19.3246 20.9072 19.364 20.6231 19.3756 20.331ZM20.2885 22.0318C20.284 21.954 20.3159 21.8897 20.3553 21.8306C20.366 21.8147 20.4027 21.8154 20.428 21.8104L20.6429 21.7678C20.7188 21.7517 20.7588 21.7007 20.7695 21.6262C20.7766 21.5771 20.7833 21.5274 20.7839 21.4777C20.789 21.0846 20.7927 20.6914 20.795 20.2982C20.7968 19.9044 20.7953 19.5107 20.7953 19.1169L20.7936 19.0417C20.786 18.9152 20.7248 18.8495 20.5992 18.831L20.3268 18.7895C20.2932 18.785 20.281 18.7689 20.2932 18.7391C20.3142 18.6883 20.3343 18.6356 20.3639 18.5899C20.375 18.573 20.4123 18.5664 20.4374 18.567C20.5675 18.5689 20.6976 18.5786 20.8278 18.5784L21.9605 18.5717C22.1787 18.5715 22.3895 18.6095 22.5852 18.714C22.8006 18.8287 22.9212 19.0063 22.9557 19.2482C22.9917 19.5022 22.9146 19.7164 22.729 19.8864C22.6527 19.9565 22.5539 20.0023 22.4654 20.0593L22.4365 20.0773C22.5186 20.1075 22.5968 20.1335 22.673 20.1647C22.8957 20.256 23.0729 20.3987 23.1666 20.6265C23.2407 20.8063 23.2407 20.9938 23.1968 21.1802C23.1286 21.4719 22.9364 21.666 22.6865 21.8128C22.4519 21.9506 22.198 22.0309 21.9276 22.0444C21.6783 22.0569 21.4278 22.0522 21.1778 22.055L21.0331 22.0558C20.7922 22.0503 20.5513 22.0443 20.3105 22.0378L20.2885 22.0318ZM21.3267 20.8901H21.3291C21.3291 21.0135 21.3275 21.1369 21.3297 21.2602C21.3312 21.3401 21.3284 21.4222 21.3456 21.4991C21.3715 21.614 21.424 21.7177 21.553 21.7507C21.7255 21.7959 21.9056 21.8038 22.0814 21.774C22.3021 21.7355 22.4781 21.6249 22.5747 21.4147C22.6463 21.2585 22.657 21.093 22.6325 20.9239C22.5998 20.7011 22.4815 20.5395 22.2848 20.4335C22.1558 20.364 22.0182 20.3214 21.8716 20.3158C21.7073 20.3096 21.5429 20.3092 21.3786 20.3042C21.3325 20.3029 21.3261 20.3263 21.3263 20.3642C21.3273 20.5393 21.3267 20.7146 21.3267 20.8901ZM21.6764 20.051C21.7662 20.0465 21.8678 20.0452 21.9689 20.0351C22.1624 20.0158 22.2987 19.9185 22.3698 19.7334C22.406 19.6395 22.4045 19.5427 22.4054 19.445C22.4082 19.1906 22.2597 18.9821 22.018 18.8959C21.8315 18.8293 21.6391 18.8282 21.4456 18.8334C21.3672 18.8355 21.3321 18.8698 21.331 18.9487L21.3194 19.9779C21.3188 20.0188 21.3365 20.0364 21.3762 20.0377L21.6764 20.051Z" fill="#94795D"/>
<path fill-rule="evenodd" clip-rule="evenodd" d="M1.97654 21.8339L1.96285 22.0109C1.83535 22.0109 1.71779 22.01 1.60022 22.0113C1.37879 22.0135 1.15735 22.0171 0.935723 22.0203L0.914348 22.0216C0.88266 22.0178 0.825098 22.0178 0.823598 22.0085C0.814223 21.9558 0.817223 21.9005 0.81966 21.8459C0.819848 21.8397 0.84141 21.8318 0.853973 21.8288L1.02629 21.7904C1.13372 21.7625 1.1716 21.7161 1.17666 21.6051C1.18247 21.4801 1.18829 21.3548 1.18885 21.2298C1.19054 20.9219 1.18866 20.6144 1.18997 20.3065C1.19016 20.2345 1.16522 20.1809 1.0981 20.1516C1.01833 20.1162 0.938009 20.0821 0.85716 20.0493C0.81891 20.0339 0.769223 20.0255 0.773723 19.9741C0.778223 19.9218 0.82641 19.9081 0.871785 19.8978C1.05966 19.8548 1.24772 19.813 1.43504 19.7673C1.49541 19.7525 1.55316 19.7275 1.62535 19.7024C1.6291 19.7414 1.63604 19.7785 1.63529 19.8156L1.62422 19.9921C1.62404 20.012 1.63435 20.0386 1.64916 20.0496C1.65816 20.0566 1.68835 20.044 1.70335 20.0324C1.86347 19.9105 2.03297 19.8053 2.22629 19.744C2.52572 19.649 2.78279 19.7371 2.96279 19.9953C3.02616 20.0862 3.02635 20.0862 3.11428 20.0226C3.26522 19.913 3.4231 19.8162 3.59972 19.7525C3.98747 19.6124 4.36004 19.7901 4.49485 20.1807C4.54397 20.3225 4.56272 20.4689 4.56235 20.6185L4.55879 21.6119C4.5586 21.6938 4.58579 21.7405 4.66379 21.766C4.75135 21.7947 4.8421 21.8144 4.94072 21.8403L4.91785 22.0111C4.80572 22.0111 4.7026 22.0103 4.59947 22.0113C4.34747 22.0135 4.09547 22.0148 3.84366 22.0206C3.79978 22.0218 3.78835 22.0109 3.7861 21.9698C3.77879 21.8384 3.77766 21.8386 3.90141 21.809L3.94304 21.7983C4.06397 21.7653 4.10429 21.7281 4.10522 21.6055C4.10804 21.2534 4.11535 20.9003 4.09753 20.549C4.07897 20.1845 3.78966 19.9904 3.43641 20.0838C3.32241 20.115 3.21503 20.1667 3.11953 20.2364C3.08672 20.2598 3.08053 20.2868 3.08316 20.3279C3.09328 20.4831 3.0991 20.6385 3.1006 20.794C3.10285 21.0661 3.09947 21.3381 3.1006 21.6104C3.10097 21.7206 3.13866 21.7628 3.2476 21.7883L3.40941 21.8256L3.43941 21.8324C3.44166 21.8841 3.44372 21.9359 3.44128 21.9876C3.43978 22.0201 3.41466 22.0229 3.38653 22.0223C3.22922 22.0184 3.07172 22.0131 2.91441 22.0135C2.72297 22.0139 2.53172 22.0193 2.34047 22.0227H2.29547C2.29547 21.9678 2.29285 21.9153 2.29735 21.863C2.29828 21.8504 2.32041 21.8328 2.3356 21.8288L2.52422 21.7889C2.60428 21.7692 2.64254 21.7281 2.64704 21.6468C2.66841 21.2699 2.68379 20.8928 2.64835 20.5161C2.63969 20.4417 2.61905 20.3692 2.58722 20.3015C2.49066 20.0881 2.27335 19.999 2.02266 20.0631C1.9036 20.0935 1.79616 20.1481 1.69454 20.2169C1.67244 20.2306 1.65429 20.2498 1.64186 20.2727C1.62944 20.2955 1.62316 20.3212 1.62366 20.3472C1.62391 20.7232 1.62472 21.0991 1.6261 21.4748L1.62816 21.6198C1.63041 21.7208 1.67335 21.7741 1.77366 21.7958C1.83816 21.8105 1.90341 21.8204 1.97654 21.8339Z" fill="#50382B"/>
<path fill-rule="evenodd" clip-rule="evenodd" d="M13.3122 19.7409C13.3413 19.8823 13.3407 20.0094 13.2369 20.1058C13.1337 20.2016 13.0032 20.1693 12.8759 20.148C12.8877 20.2151 12.9009 20.2721 12.9072 20.3298C12.9535 20.759 12.7689 21.0776 12.3708 21.2597C12.2204 21.3283 12.0609 21.3538 11.8979 21.3669C11.8169 21.3733 11.746 21.4352 11.7384 21.5017C11.7305 21.5692 11.7729 21.6386 11.8576 21.6588C11.9575 21.6827 12.0618 21.6894 12.1644 21.7012C12.3845 21.7263 12.607 21.7378 12.8245 21.7772C13.1534 21.8364 13.337 22.1235 13.279 22.4538C13.2275 22.7478 13.0572 22.9618 12.8199 23.1258C12.4199 23.403 11.9812 23.484 11.5139 23.3426C11.2467 23.2616 11.0583 23.0859 10.9932 22.8017C10.9606 22.6593 10.9953 22.5305 11.1024 22.434C11.2297 22.3196 11.3682 22.2176 11.5015 22.1096L11.5447 22.0663L11.4952 22.0316C11.3592 21.9671 11.2505 21.8788 11.2083 21.7254C11.1939 21.6735 11.2089 21.6393 11.2529 21.6127C11.3279 21.5676 11.4025 21.5217 11.4766 21.4749C11.5115 21.4532 11.546 21.4307 11.5784 21.4055C11.6227 21.3718 11.6187 21.3467 11.5659 21.3272C11.4429 21.2818 11.3335 21.216 11.2488 21.1147C11.1072 20.9458 11.0671 20.7446 11.0787 20.5322C11.0969 20.2003 11.2771 19.9817 11.57 19.841C11.9182 19.674 12.2675 19.6635 12.6224 19.8157C12.7537 19.872 12.892 19.884 13.0329 19.8742C13.138 19.8667 13.2299 19.827 13.3122 19.7409ZM12.0292 22.1186C11.7678 22.1163 11.6859 22.1486 11.5325 22.3048C11.3607 22.4799 11.3617 22.7227 11.533 22.8986C11.6632 23.0319 11.8255 23.0943 12.0061 23.1131C12.217 23.1348 12.4248 23.126 12.6164 23.0205C12.8208 22.9074 12.9224 22.6974 12.8765 22.4859C12.8384 22.3113 12.7098 22.2315 12.5532 22.1855C12.3751 22.1334 12.191 22.1235 12.0292 22.1186ZM11.5158 20.4483C11.5254 20.5209 11.5293 20.5944 11.5454 20.6655C11.5872 20.8496 11.6673 21.0114 11.8505 21.0933C12.0655 21.1899 12.3402 21.1485 12.4344 20.8466C12.4987 20.6457 12.4912 20.4287 12.4132 20.2327C12.3802 20.1431 12.3207 20.0656 12.2425 20.0107C12.0558 19.8804 11.7189 19.8632 11.5816 20.1512C11.537 20.2447 11.5195 20.3443 11.5158 20.4483Z" fill="#4F382B"/>
<path fill-rule="evenodd" clip-rule="evenodd" d="M8.87827 19.6947C8.88521 19.7268 8.89908 19.7632 8.89946 19.7997C8.90002 19.8693 8.89252 19.9388 8.88858 20.0084V20.0688L8.94746 20.0238C9.10871 19.891 9.28196 19.778 9.48371 19.717C9.84783 19.6073 10.2116 19.8067 10.3303 20.1775C10.3753 20.3185 10.3931 20.4635 10.3948 20.6108C10.3985 20.9382 10.4008 21.2656 10.4041 21.593C10.4053 21.7105 10.4188 21.7315 10.53 21.7655C10.5932 21.7844 10.6578 21.7987 10.7231 21.8084C10.7589 21.814 10.7743 21.8281 10.7724 21.8632L10.7728 21.8954C10.7715 22.031 10.7621 22.0372 10.6306 22.0368C10.316 22.0362 10.0016 22.0381 9.68696 22.0407C9.59321 22.0415 9.59302 22.0443 9.58364 21.9517L9.58177 21.8984C9.58758 21.8185 9.58946 21.8193 9.66802 21.8077C9.7209 21.7998 9.77339 21.7876 9.82496 21.7741C9.87802 21.7604 9.90352 21.7212 9.91064 21.6687C9.91421 21.6421 9.91889 21.6155 9.91871 21.5888C9.91421 21.2311 9.92002 20.873 9.90052 20.5158C9.88477 20.2268 9.66427 20.0547 9.37421 20.0744C9.23439 20.0841 9.1 20.1323 8.98589 20.2137C8.90846 20.2679 8.89289 20.3461 8.89327 20.4303C8.89502 20.7648 8.89777 21.0993 8.90152 21.434C8.90227 21.5073 8.90433 21.5806 8.91127 21.6533C8.91858 21.7328 8.94652 21.7649 9.02452 21.7822C9.09915 21.7987 9.17527 21.8082 9.25496 21.8215L9.26171 21.883C9.26433 22.0265 9.24933 22.0372 9.11002 22.0366C8.78471 22.0353 8.45939 22.0373 8.13427 22.0409C8.08308 22.0417 8.06133 22.0255 8.06264 21.9757L8.06189 21.9543C8.05346 21.8251 8.05721 21.8202 8.17946 21.7992L8.23721 21.7876C8.36958 21.7578 8.40352 21.7225 8.40539 21.5881C8.41158 21.1623 8.41383 20.7367 8.41814 20.3108C8.41871 20.2497 8.39564 20.2023 8.33864 20.177C8.25865 20.1419 8.17821 20.1079 8.09733 20.075C8.05271 20.0566 8.00171 20.045 8.00002 19.9833C7.99889 19.9398 8.0454 19.9013 8.10896 19.8884C8.23665 19.8625 8.36546 19.841 8.49164 19.8093C8.61727 19.778 8.74064 19.736 8.87827 19.6947Z" fill="#4F372B"/>
<path fill-rule="evenodd" clip-rule="evenodd" d="M15.9125 20.8069C15.9065 21.2046 15.8032 21.5262 15.5219 21.7675C15.1657 22.0737 14.6099 22.1777 14.1556 21.9488C13.9617 21.8511 13.8192 21.7013 13.7264 21.5069C13.5841 21.2078 13.5485 20.8934 13.6227 20.5712C13.6962 20.2527 13.8892 20.0219 14.1779 19.8724C14.4749 19.7189 14.7877 19.6589 15.1175 19.7395C15.5347 19.8413 15.8345 20.1814 15.8941 20.6145C15.9048 20.6905 15.9089 20.7674 15.9125 20.8069ZM15.4293 21.0224L15.4132 21.0205C15.4132 20.983 15.4152 20.9455 15.4128 20.908C15.3991 20.6744 15.3466 20.4518 15.2112 20.2562C15.0828 20.071 14.9078 19.9617 14.6802 19.9457C14.4254 19.9277 14.2113 20.0702 14.1361 20.3305C14.0232 20.7212 14.0615 21.102 14.2598 21.46C14.3463 21.616 14.4743 21.7311 14.6459 21.7917C14.9821 21.91 15.2802 21.7568 15.3678 21.4125C15.4 21.2854 15.4094 21.1525 15.4293 21.0224Z" fill="#4F382B"/>
<path fill-rule="evenodd" clip-rule="evenodd" d="M7.65352 20.8376C7.64658 21.123 7.57927 21.3868 7.40302 21.6161C7.21421 21.8618 6.95471 21.993 6.65958 22.0483C6.31065 22.1136 5.9829 22.0543 5.70258 21.8201C5.56946 21.7088 5.47852 21.5661 5.41852 21.4037C5.32008 21.1374 5.29552 20.8646 5.35608 20.5866C5.42077 20.289 5.58877 20.0616 5.84921 19.9089C6.15033 19.7329 6.47527 19.6543 6.82233 19.7334C7.26858 19.8354 7.52621 20.1263 7.62146 20.5665C7.64058 20.6554 7.64321 20.7473 7.65352 20.8376ZM7.1649 21.0259L7.15196 21.024V20.9704C7.14465 20.7086 7.09346 20.4593 6.93727 20.2418C6.82158 20.0803 6.66671 19.9791 6.46815 19.9508C6.14452 19.9046 5.93302 20.0966 5.8629 20.3574C5.7714 20.6981 5.80008 21.0347 5.94165 21.3578C6.02996 21.5591 6.16946 21.7161 6.38377 21.7922C6.7179 21.9109 7.02052 21.7538 7.10508 21.4108C7.13621 21.2854 7.14558 21.1545 7.1649 21.0259Z" fill="#4F372B"/>
<path fill-rule="evenodd" clip-rule="evenodd" d="M15.4424 6.28955C15.6725 6.95461 15.8378 7.63355 15.8924 8.33705C15.9599 9.21005 15.9291 10.0771 15.745 10.9356L15.7214 11.0042C15.6636 11.0044 15.6048 10.9971 15.5483 11.0059C15.0715 11.0809 14.5953 11.1586 14.1188 11.2358C13.6263 11.3157 13.1333 11.3924 12.6417 11.4775C12.4675 11.5075 12.2519 11.4717 12.1816 11.7124L12.1478 11.7239L12.1716 10.2842L12.1475 6.81061L12.377 6.77124C12.7521 6.70993 13.1273 6.64749 13.5031 6.58768C13.9512 6.51661 14.3997 6.44724 14.8482 6.37786C15.0462 6.34749 15.2444 6.31918 15.4424 6.28955Z" fill="#439934"/>
<path fill-rule="evenodd" clip-rule="evenodd" d="M11.6745 15.9209C11.4324 15.7127 11.1819 15.5138 10.95 15.2948C9.70161 14.1173 8.7883 12.7311 8.33849 11.0599C8.21455 10.6002 8.13205 10.1327 8.10542 9.65761C8.08667 9.32498 8.05986 8.98954 8.08349 8.65861C8.14592 7.77867 8.27324 6.90717 8.53124 6.05948L8.54549 6.03979C8.57061 6.07317 8.60661 6.10279 8.61936 6.14048C8.87124 6.88223 9.12148 7.62467 9.37011 8.36779C10.1518 10.7024 10.9325 13.0375 11.7155 15.3717C11.7309 15.4172 11.7705 15.4545 11.799 15.4956L11.6745 15.9209Z" fill="#45A538"/>
<path fill-rule="evenodd" clip-rule="evenodd" d="M15.4427 6.28962C15.2445 6.31905 15.0463 6.34755 14.8485 6.37793C14.4 6.4473 13.9515 6.51668 13.5034 6.58774C13.1278 6.64737 12.7526 6.7098 12.3773 6.7713L12.1478 6.81068L12.1459 6.66106C12.1382 6.53806 12.1254 6.41505 12.1238 6.29205L12.0981 3.93818C12.0921 3.44712 12.0831 2.95605 12.0731 2.46518C12.0681 2.16008 12.0593 1.85506 12.0467 1.55018C12.0392 1.38649 12.0128 1.22355 12.0023 1.05987C11.9961 0.965742 12.0043 0.870867 12.0064 0.776367C12.1234 1.00305 12.2379 1.23143 12.3581 1.45643C12.5481 1.81212 12.8509 2.07424 13.1237 2.36018C14.2011 3.49099 14.9659 4.80499 15.4427 6.28962Z" fill="#46A037"/>
<path fill-rule="evenodd" clip-rule="evenodd" d="M12.148 11.7238L12.1818 11.7123C12.2521 11.4716 12.4677 11.5074 12.6419 11.4774C13.1335 11.3923 13.6265 11.3156 14.119 11.2357C14.5955 11.1586 15.0717 11.081 15.5485 11.0058C15.605 10.997 15.6639 11.0043 15.7216 11.0041C15.6325 11.3221 15.5624 11.6471 15.4494 11.9563C15.3209 12.3069 15.1657 12.6493 15.0009 12.9849C14.754 13.4854 14.4485 13.9548 14.0909 14.3833C13.816 14.7136 13.5097 15.0194 13.2027 15.3211C13.0329 15.4878 12.833 15.6238 12.6466 15.7738L12.5982 15.7408L12.4244 15.5923L12.2446 15.1978C12.1218 14.7377 12.0548 14.2646 12.0449 13.7885L12.0483 13.7083L12.0729 13.3606C12.0809 13.2419 12.0918 13.1234 12.0969 13.0048C12.1149 12.578 12.131 12.1509 12.148 11.7238Z" fill="#409433"/>
<path fill-rule="evenodd" clip-rule="evenodd" d="M12.1487 11.7238C12.1318 12.1509 12.1157 12.5782 12.0975 13.0053C12.0925 13.1242 12.0818 13.2427 12.0735 13.3612L11.964 13.4026C11.7206 12.6862 11.4771 11.9773 11.239 11.2666C10.845 10.0908 10.456 8.91332 10.0626 7.73714C9.74493 6.78789 9.42505 5.83939 9.10296 4.89164C9.08777 4.84739 9.04465 4.81251 9.01465 4.77332L9.7159 3.48389C9.74009 3.5257 9.77177 3.56489 9.78696 3.60989C10.1113 4.56989 10.4351 5.53007 10.7561 6.4912C11.1739 7.74182 11.5888 8.99301 12.0062 10.2438C12.0229 10.2937 12.0503 10.3398 12.0765 10.3959L12.1725 10.2841L12.1487 11.7238Z" fill="#4FAA41"/>
<path fill-rule="evenodd" clip-rule="evenodd" d="M9.01465 4.77344C9.04484 4.81263 9.08796 4.8475 9.10296 4.89175C9.42508 5.83949 9.74496 6.78799 10.0626 7.73725C10.456 8.91344 10.845 10.0909 11.239 11.2668C11.4771 11.9774 11.7206 12.6861 11.964 13.4028L12.0735 13.3613L12.049 13.7089L12.0266 13.789C11.9886 14.1694 11.9565 14.5506 11.91 14.9303C11.8868 15.1206 11.8371 15.3074 11.7994 15.4956C11.7711 15.4546 11.7313 15.4173 11.716 15.3717C10.9328 13.0375 10.1522 10.7024 9.37052 8.36781C9.12182 7.62485 8.87157 6.88242 8.61977 6.1405C8.60702 6.10281 8.57102 6.07319 8.5459 6.03981L9.01465 4.77344Z" fill="#4AA73C"/>
<path fill-rule="evenodd" clip-rule="evenodd" d="M12.1724 10.2843L12.0764 10.396C12.0502 10.3399 12.0228 10.2938 12.0061 10.2439C11.5888 8.99314 11.1738 7.74195 10.7561 6.49132C10.4347 5.53032 10.1116 4.56988 9.78688 3.61001C9.77169 3.56501 9.74001 3.52582 9.71582 3.48401L10.583 2.34326C10.6104 2.37964 10.6494 2.41207 10.6634 2.45314C10.9041 3.15814 11.1429 3.8637 11.3801 4.56982C11.6017 5.22945 11.8199 5.88982 12.0442 6.54832C12.0592 6.59239 12.1115 6.62351 12.1464 6.66101L12.1483 6.81064L12.1724 10.2843Z" fill="#57AE47"/>
<path fill-rule="evenodd" clip-rule="evenodd" d="M12.1464 6.66087C12.1113 6.62356 12.0592 6.59243 12.0442 6.54818C11.8201 5.88968 11.6017 5.2293 11.3801 4.56968C11.1429 3.86355 10.904 3.15798 10.6634 2.45299C10.6494 2.41193 10.6104 2.37949 10.583 2.34312C10.865 2.06693 11.1382 1.7808 11.4316 1.51737C11.6924 1.28337 11.9021 1.03249 11.9118 0.662555L11.9324 0.588867L12.0067 0.775992C12.0048 0.870492 11.9964 0.965367 12.0026 1.05949C12.0133 1.22318 12.0397 1.38612 12.047 1.5498C12.0607 1.85449 12.0673 2.15974 12.0734 2.4648C12.0834 2.95568 12.0924 3.44674 12.0984 3.9378L12.1241 6.29168C12.1259 6.41487 12.1389 6.53787 12.1464 6.66087Z" fill="#60B24F"/>
<path fill-rule="evenodd" clip-rule="evenodd" d="M11.7995 15.4955C11.8372 15.3072 11.8869 15.1205 11.9101 14.9302C11.9566 14.5507 11.9887 14.1693 12.0267 13.7889L12.0363 13.7874L12.0457 13.789C12.0556 14.2651 12.1226 14.7382 12.2454 15.1983C12.2201 15.2317 12.1846 15.2611 12.1711 15.2986C12.0671 15.5922 11.9688 15.8883 11.8642 16.1817C11.8499 16.2219 11.8098 16.2532 11.7819 16.2882L11.6748 15.9207L11.7995 15.4955Z" fill="#A9AA88"/>
<path fill-rule="evenodd" clip-rule="evenodd" d="M11.7812 16.2884C11.8092 16.2532 11.8493 16.222 11.8636 16.1819C11.9682 15.8885 12.0664 15.5924 12.1705 15.2988C12.1838 15.2613 12.2194 15.2319 12.2448 15.1985L12.4246 15.593C12.3891 15.6432 12.34 15.6888 12.3203 15.7449L11.9761 16.7559C11.9618 16.7965 11.9136 16.825 11.881 16.8594L11.7812 16.2884Z" fill="#B6B598"/>
<path fill-rule="evenodd" clip-rule="evenodd" d="M11.8809 16.8591C11.9133 16.8248 11.9617 16.7963 11.9759 16.7556L12.3202 15.7446C12.3397 15.6886 12.389 15.643 12.4244 15.5928L12.5984 15.7411C12.5144 15.8241 12.4677 15.9201 12.4959 16.0415L12.443 16.2145C12.419 16.2441 12.3841 16.27 12.3723 16.304C12.2521 16.6482 12.1375 16.9943 12.0164 17.3384C12.001 17.3819 11.9585 17.4162 11.9287 17.4548L11.8809 16.8591Z" fill="#C2C1A7"/>
<path fill-rule="evenodd" clip-rule="evenodd" d="M11.929 17.4547C11.959 17.416 12.0016 17.3817 12.0168 17.3382C12.1379 16.9942 12.2527 16.648 12.3727 16.3038C12.3845 16.2699 12.4193 16.2442 12.4433 16.2144L12.3704 17.0086C12.3509 17.0311 12.3228 17.0508 12.3134 17.0769L12.0708 17.7721C12.0537 17.8195 12.0211 17.8619 11.9956 17.9064C11.9729 17.8767 11.9324 17.848 11.9305 17.8173C11.9234 17.6969 11.9285 17.5756 11.929 17.4547Z" fill="#CECDB7"/>
<path fill-rule="evenodd" clip-rule="evenodd" d="M11.9961 17.9065C12.0216 17.8621 12.0542 17.8197 12.0713 17.7723L12.3139 17.077C12.3233 17.0508 12.3516 17.0313 12.3709 17.0088L12.3728 17.53L12.1982 17.9776L11.9961 17.9065Z" fill="#DBDAC7"/>
<path fill-rule="evenodd" clip-rule="evenodd" d="M12.1982 17.9776L12.3728 17.53L12.4088 18.0595L12.1982 17.9776Z" fill="#EBE9DC"/>
<path fill-rule="evenodd" clip-rule="evenodd" d="M12.4964 16.0413C12.4685 15.9202 12.515 15.8242 12.599 15.741L12.6473 15.774L12.4964 16.0413Z" fill="#CECDB7"/>
<path fill-rule="evenodd" clip-rule="evenodd" d="M12.0453 13.7892L12.0359 13.7875L12.0264 13.789L12.0487 13.709L12.0453 13.7892Z" fill="#4FAA41"/>
</g>
<defs>
<clipPath id="clip0_254_163">
<rect width="24" height="24" fill="white"/>
</clipPath>
</defs>
</svg>
