<svg width="24" height="24" viewBox="0 0 24 24" fill="none" xmlns="http://www.w3.org/2000/svg">
<g clip-path="url(#clip0_254_158)">
<path d="M18.375 0H5.625C2.5184 0 0 2.5184 0 5.625V18.375C0 21.4816 2.5184 24 5.625 24H18.375C21.4816 24 24 21.4816 24 18.375V5.625C24 2.5184 21.4816 0 18.375 0Z" fill="#242938"/>
<path d="M11.2385 2.91714C11.6997 2.65323 12.3002 2.65201 12.7609 2.91714C15.0786 4.22682 17.3971 5.53436 19.7144 6.84479C20.1503 7.09033 20.4418 7.57539 20.4374 8.07761V15.9568C20.4407 16.4799 20.1203 16.9765 19.6605 17.2164C17.3504 18.5189 15.0414 19.8229 12.7317 21.1254C12.2612 21.3944 11.6485 21.3737 11.1925 21.0825C10.5 20.6811 9.80621 20.2815 9.11359 19.8805C8.97203 19.7961 8.81246 19.7289 8.71253 19.5917C8.80093 19.4726 8.9589 19.4578 9.08725 19.4058C9.37628 19.3138 9.64187 19.1663 9.90737 19.0231C9.97459 18.9772 10.0565 18.9948 10.1209 19.0359C10.7132 19.3754 11.3002 19.7249 11.8944 20.0612C12.0212 20.1344 12.1495 20.0372 12.2579 19.9768C14.5247 18.6955 16.7944 17.4192 19.061 16.1376C19.145 16.0972 19.1914 16.008 19.1846 15.916C19.1862 13.3168 19.185 10.7172 19.1854 8.11792C19.195 8.01367 19.1346 7.91767 19.0402 7.87492C16.7382 6.57845 14.4372 5.28011 12.1355 3.98336C12.0956 3.95596 12.0484 3.94125 12 3.94117C11.9517 3.94109 11.9044 3.95563 11.8644 3.98289C9.56265 5.28011 7.26221 6.57976 4.96046 7.87604C4.86643 7.91889 4.80334 8.01329 4.8145 8.11792C4.81496 10.7172 4.8145 13.3168 4.8145 15.9164C4.81047 15.9613 4.82033 16.0064 4.84273 16.0455C4.86512 16.0846 4.89899 16.116 4.93975 16.1352C5.5539 16.4835 6.1689 16.8294 6.78353 17.1765C7.12984 17.3628 7.5549 17.4736 7.93646 17.3308C8.27303 17.2101 8.509 16.8665 8.50262 16.5091C8.50581 13.9251 8.50103 11.3407 8.50496 8.75692C8.49653 8.64226 8.60537 8.54748 8.71693 8.55836C9.01206 8.55629 9.30756 8.55432 9.60268 8.55911C9.72587 8.55629 9.81062 8.67986 9.79543 8.79536C9.79421 11.3958 9.79862 13.9962 9.79346 16.5966C9.79421 17.2897 9.5095 18.0438 8.86843 18.3829C8.07878 18.7919 7.10265 18.7052 6.32246 18.3129C5.64709 17.9758 5.00246 17.5779 4.33909 17.2168C3.87803 16.9782 3.55928 16.4796 3.56256 15.9569V8.07761C3.55768 7.56498 3.86087 7.07111 4.31021 6.82914C6.61993 5.52573 8.92928 4.2212 11.2385 2.91714Z" fill="#81CD39"/>
<path d="M13.2535 8.37507C14.2608 8.31019 15.3393 8.33663 16.2457 8.83294C16.9476 9.21319 17.3367 10.0114 17.3491 10.7911C17.3295 10.8962 17.2195 10.9542 17.1191 10.947C16.8269 10.9466 16.5345 10.951 16.2423 10.945C16.1182 10.9498 16.0462 10.8355 16.0307 10.7259C15.9467 10.3528 15.7431 9.98335 15.392 9.80335C14.853 9.53353 14.228 9.54713 13.6402 9.55275C13.2111 9.57544 12.7497 9.61266 12.3861 9.86494C12.107 10.0561 12.0223 10.442 12.1218 10.7528C12.2158 10.9759 12.4733 11.0479 12.6842 11.1143C13.8981 11.4318 15.1846 11.4001 16.3754 11.8179C16.8684 11.9883 17.3507 12.3195 17.5194 12.8357C17.7402 13.5276 17.6434 14.3544 17.1512 14.9098C16.752 15.3668 16.1706 15.6157 15.5908 15.7508C14.8194 15.9228 14.0189 15.9272 13.2355 15.8508C12.4989 15.7668 11.7323 15.5733 11.1637 15.0714C10.6774 14.6492 10.44 13.9913 10.4635 13.3564C10.4691 13.2491 10.5759 13.1743 10.6787 13.1831C10.9729 13.1808 11.2673 13.1799 11.5616 13.1836C11.6793 13.1752 11.7663 13.2768 11.7724 13.3876C11.8266 13.743 11.9602 14.1161 12.2703 14.3268C12.8684 14.7128 13.619 14.6863 14.304 14.6971C14.8714 14.672 15.5085 14.6644 15.9715 14.2893C16.2158 14.0753 16.2882 13.7174 16.2222 13.4095C16.1507 13.1496 15.8787 13.0284 15.6452 12.9492C14.4468 12.5702 13.1459 12.7077 11.9591 12.279C11.4772 12.1088 11.0113 11.7868 10.8262 11.2918C10.5679 10.5912 10.6863 9.7246 11.2301 9.18807C11.7604 8.65416 12.5257 8.44857 13.2535 8.37507Z" fill="#81CD39"/>
</g>
<defs>
<clipPath id="clip0_254_158">
<rect width="24" height="24" fill="white"/>
</clipPath>
</defs>
</svg>
