<svg width="14" height="14" viewBox="0 0 14 14" fill="none" xmlns="http://www.w3.org/2000/svg">
<path d="M7.26837 0.00149034C7.14225 -0.00681129 7.01626 0.0196843 6.90416 0.0780867C6.79206 0.136489 6.69816 0.224555 6.63269 0.332678L1.39691 8.8718C1.3287 8.98302 1.29303 9.11113 1.29396 9.24159C1.29489 9.37205 1.33237 9.49963 1.40216 9.60987L3.97991 13.6771C4.06171 13.8052 4.18306 13.9032 4.32557 13.9562C4.46807 14.0091 4.62396 14.0142 4.76959 13.9705L12.2084 11.7385C12.3039 11.7099 12.3922 11.6611 12.4673 11.5955C12.5424 11.5298 12.6025 11.4488 12.6435 11.3579C12.6846 11.267 12.7057 11.1684 12.7053 11.0687C12.705 10.9689 12.6832 10.8705 12.6415 10.7799L7.85966 0.405631C7.80763 0.290593 7.725 0.192059 7.62078 0.120789C7.51657 0.0495178 7.39478 0.00824987 7.2687 0.00149034H7.26837ZM7.4647 2.62102C7.52031 2.61441 7.57656 2.62614 7.62489 2.65444C7.67322 2.68273 7.71099 2.72603 7.73245 2.77776L11.0312 10.4104C11.0459 10.4443 11.0532 10.481 11.0527 10.5179C11.0522 10.5549 11.0439 10.5913 11.0282 10.6248C11.0126 10.6583 10.99 10.6881 10.9621 10.7123C10.9341 10.7364 10.9013 10.7543 10.8658 10.7649L5.72564 12.2987C5.68245 12.3116 5.63667 12.313 5.59276 12.3029C5.54884 12.2929 5.50827 12.2716 5.47499 12.2412C5.44171 12.2109 5.41685 12.1724 5.40281 12.1296C5.38878 12.0868 5.38605 12.041 5.39489 11.9969L7.23567 2.82993C7.24594 2.77484 7.27392 2.72462 7.31536 2.68691C7.35681 2.64919 7.40944 2.62606 7.46525 2.62102H7.4647Z" fill="#2D3748"/>
</svg>
